<svg xmlns="http://www.w3.org/2000/svg" width="60" height="63" fill="none" viewBox="0 0 90 95">
  <circle cx="43.5" cy="51.5" r="43.5" fill="#F4CE71"/>
  <path fill="#1E4460" d="M39.713 79.86c-5.045 0-9.546-1.118-13.502-3.354-3.899-2.236-6.937-5.533-9.116-9.89-2.179-4.357-3.268-9.66-3.268-15.91 0-6.135 1.147-11.38 3.44-15.738 2.293-4.357 5.561-7.711 9.804-10.062 4.3-2.35 9.345-3.526 15.136-3.526 6.421 0 11.61 1.175 15.566 3.526 3.956 2.293 7.023 5.963 9.202 11.008l-13.674 5.418c-.745-2.924-2.064-5.045-3.956-6.364s-4.243-1.978-7.052-1.978c-2.81 0-5.217.688-7.224 2.064-2.007 1.319-3.526 3.297-4.558 5.934-1.032 2.58-1.548 5.79-1.548 9.632 0 4.013.516 7.367 1.548 10.062 1.09 2.695 2.666 4.701 4.73 6.02 2.121 1.261 4.73 1.892 7.826 1.892 1.663 0 3.182-.2 4.558-.602 1.376-.401 2.58-.975 3.612-1.72a8.457 8.457 0 0 0 2.408-2.924c.573-1.204.86-2.609.86-4.214v-.86H41.519v-9.89h25.542V79H56.999l-1.118-13.33 2.408 2.064c-1.204 3.899-3.383 6.909-6.536 9.03-3.096 2.064-7.11 3.096-12.04 3.096Z"/>
  <path fill="#5F99B6" d="M58.063 56.5h9V79h-9V56.5Zm25.53-9.446L74.416 61.4 67.3 42.099l16.294 4.955Z"/>
  <path fill="#F4CE71" d="M41 48h27v1H41z"/>
  <path fill="#5F99B6" d="m42.707 53.805 29.822-8.846 2.734 9.218-29.822 8.846z"/>
  <path fill="#1E4460" d="m42.973 54.357 4.627 8.258-4.276 1.202-.351-9.46Z"/>
  <path fill="#F4CE71" d="m39.313 47.266 27.738-8.387 2.295 7.592-27.737 8.387z"/>
  <path fill="#F4CE71" d="M41 52h2v7h-2z"/>
</svg>
